{
    "asset" : {
        "generator" : "Khronos glTF Blender I/O v1.8.19",
        "version" : "2.0"
    },
    "scene" : 0,
    "scenes" : [
        {
            "name" : "Scene",
            "nodes" : [
                0,
                1,
                2
            ]
        }
    ],
    "nodes" : [
        {
            "mesh" : 0,
            "name" : "paper plane ",
            "translation" : [
                -0.793540358543396,
                0,
                0
            ]
        },
        {
            "name" : "Wind",
            "translation" : [
                -0.874347448348999,
                -0.13159649074077606,
                0.04050537943840027
            ]
        },
        {
            "name" : "Wind.001",
            "translation" : [
                -0.680180549621582,
                -0.1326373964548111,
                0.0434751957654953
            ]
        }
    ],
    "materials" : [
        {
            "doubleSided" : true,
            "name" : "papier",
            "pbrMetallicRoughness" : {
                "metallicFactor" : 0,
                "roughnessFactor" : 0.6499999761581421
            }
        }
    ],
    "meshes" : [
        {
            "name" : "Plane.002",
            "primitives" : [
                {
                    "attributes" : {
                        "POSITION" : 0,
                        "NORMAL" : 1,
                        "TEXCOORD_0" : 2
                    },
                    "indices" : 3,
                    "material" : 0
                }
            ]
        }
    ],
    "accessors" : [
        {
            "bufferView" : 0,
            "componentType" : 5126,
            "count" : 74,
            "max" : [
                0.2189837396144867,
                -0.013830192387104034,
                0.27393245697021484
            ],
            "min" : [
                -0.17861837148666382,
                -0.04336553439497948,
                -0.32006752490997314
            ],
            "type" : "VEC3"
        },
        {
            "bufferView" : 1,
            "componentType" : 5126,
            "count" : 74,
            "type" : "VEC3"
        },
        {
            "bufferView" : 2,
            "componentType" : 5126,
            "count" : 74,
            "type" : "VEC2"
        },
        {
            "bufferView" : 3,
            "componentType" : 5123,
            "count" : 102,
            "type" : "SCALAR"
        }
    ],
    "bufferViews" : [
        {
            "buffer" : 0,
            "byteLength" : 888,
            "byteOffset" : 0
        },
        {
            "buffer" : 0,
            "byteLength" : 888,
            "byteOffset" : 888
        },
        {
            "buffer" : 0,
            "byteLength" : 592,
            "byteOffset" : 1776
        },
        {
            "buffer" : 0,
            "byteLength" : 204,
            "byteOffset" : 2368
        }
    ],
    "buffers" : [
        {
            "byteLength" : 2572,
            "uri" : "src/components/objects/Paper/paper plane.bin"
        }
    ]
}
